<svg id="Layer_1" data-name="Layer 1" xmlns="http://www.w3.org/2000/svg" viewBox="0 0 640 360"><defs><style>.cls-1{fill:#e6e6da;}.cls-2{fill:#e68aa9;}.cls-3{fill:#f2b679;}</style></defs><rect class="cls-1" width="640" height="360"/><path class="cls-2" d="M-57.77,353c5.87-28.47,58.55-7.22,78.76-37,17.63-25.92,89.62,23.8,51.26,86.9C62,419.84-21.57,483.07,116.77,551c38.37,18.84,129-34.7,77.51-124.85-15-26.2-37.87-94.49,19.71-113.61,40.13-13.31,121.31,21.83,79.29,91.25-32.31,53.39-.45,103.06,23.84,108.69,54.64,12.67,72.71-38.22,67.4-63.47-10-47.87,30.86-91.3,79.83-60.07,43,27.41,104.64-16.27,75.63-47.75s-171.19-3.07-202.06-72.72c-15.7-35.42,42.19-95.29,95.54-39.39s164.19,31,155.8-39.89,47.06-89,105-52.23c53.2,33.77,34.42,484.93-159.5,559.62C373.57,758.68-100.37,559.61-57.77,353Z"/><path class="cls-3" d="M758.86,170.81C712.32,79.68,703.94-48.41,603.19,48.2S408.87,75.45,355.46,109.14,253.6,123,308.32,93.29,496.31,65.53,343.06-19,218.7-127.44,258.55-143.62,917.8-409.14,855.47-105.29,794.72,241,758.86,170.81Z"/><path class="cls-3" d="M240.47,127c-1.11-9.6-39.54-18.7-58.84-14.51s-5.89,46.83,12.47,45.23C217.24,155.73,241.73,137.93,240.47,127Z"/><path class="cls-3" d="M-28.22-52.6C2.93-37.06,57.48-5.4,54.54,36.49s56,70.42,69.37,44.29S114.82-37.27,77.05-76-57.17-67-28.22-52.6Z"/><path class="cls-3" d="M-15.12,123.94c26.55,22.51,77.13,60.18,114.48,41s86.8,23.77,68,46.31S55.31,249.38,4.85,229.91-39.8,103-15.12,123.94Z"/></svg>