<svg id="Layer_1" data-name="Layer 1" xmlns="http://www.w3.org/2000/svg" xmlns:xlink="http://www.w3.org/1999/xlink" viewBox="0 0 256 128"><defs><style>.cls-1{fill:none;stroke:#333;stroke-linecap:round;stroke-linejoin:round;stroke-width:16px;}</style><symbol id="cnvs" data-name="cnvs" viewBox="0 0 237.83 116"><path class="cls-1" d="M186,57a45.92,45.92,0,0,0,9.59,1c9.45,0,18,2.8,24.19,7.32s10,10.78,10,17.68-3.83,13.16-10,17.68S205.06,108,195.61,108c-11.2,0-21.13-3.93-27.37-10"/><path class="cls-1" d="M112.59,8l40,69.34,22.49-61.75a8,8,0,0,1,4.67-4.75A44.44,44.44,0,0,1,195.61,8c9.45,0,18,2.8,24.19,7.32A27.7,27.7,0,0,1,223,18"/><path class="cls-1" d="M81.46,13.83a50,50,0,1,0-9.12,92.08,8.07,8.07,0,0,0,5.28-5L88.56,70.9a16,16,0,0,1,28.89-2.53L140.33,108"/></symbol></defs><use width="237.83" height="116" transform="translate(7.08 6)" xlink:href="#cnvs"/></svg>